<mxfile host="app.diagrams.net" modified="2022-05-04T20:12:52.958Z" agent="5.0 (X11; Linux x86_64) AppleWebKit/537.36 (KHTML, like Gecko) Chrome/96.0.4664.174 YaBrowser/22.1.3.916 Yowser/2.5 Safari/537.36" etag="1xLBnf8uAtfxzix_rxAW" version="18.0.0" type="github">
  <diagram id="oH893KN_Egk9ZZCDe7uM" name="Страница 1">
    <mxGraphModel dx="474" dy="276" grid="1" gridSize="10" guides="1" tooltips="1" connect="1" arrows="1" fold="1" page="1" pageScale="1" pageWidth="1169" pageHeight="827" math="0" shadow="0">
      <root>
        <mxCell id="0" />
        <mxCell id="1" parent="0" />
        <mxCell id="mX9lH0xKadMaAbixFSZC-5" value="" style="edgeStyle=orthogonalEdgeStyle;rounded=0;orthogonalLoop=1;jettySize=auto;html=1;" parent="1" source="mX9lH0xKadMaAbixFSZC-1" target="mX9lH0xKadMaAbixFSZC-3" edge="1">
          <mxGeometry relative="1" as="geometry" />
        </mxCell>
        <mxCell id="mX9lH0xKadMaAbixFSZC-1" value="Formula" style="rounded=0;whiteSpace=wrap;html=1;" parent="1" vertex="1">
          <mxGeometry x="150" y="90" width="210" height="120" as="geometry" />
        </mxCell>
        <mxCell id="mX9lH0xKadMaAbixFSZC-12" style="edgeStyle=orthogonalEdgeStyle;rounded=0;orthogonalLoop=1;jettySize=auto;html=1;entryX=0;entryY=0.5;entryDx=0;entryDy=0;" parent="1" source="mX9lH0xKadMaAbixFSZC-2" target="mX9lH0xKadMaAbixFSZC-7" edge="1">
          <mxGeometry relative="1" as="geometry" />
        </mxCell>
        <mxCell id="mX9lH0xKadMaAbixFSZC-2" value="input" style="text;html=1;strokeColor=none;fillColor=none;align=center;verticalAlign=middle;whiteSpace=wrap;rounded=0;" parent="1" vertex="1">
          <mxGeometry x="220" y="230" width="60" height="20" as="geometry" />
        </mxCell>
        <mxCell id="mX9lH0xKadMaAbixFSZC-3" value="DOMListener" style="rounded=0;whiteSpace=wrap;html=1;" parent="1" vertex="1">
          <mxGeometry x="470" y="90" width="190" height="120" as="geometry" />
        </mxCell>
        <mxCell id="mX9lH0xKadMaAbixFSZC-6" value="$root" style="text;html=1;strokeColor=none;fillColor=none;align=center;verticalAlign=middle;whiteSpace=wrap;rounded=0;" parent="1" vertex="1">
          <mxGeometry x="20" y="130" width="60" height="30" as="geometry" />
        </mxCell>
        <mxCell id="RwqCtOEDGQTjEghPccc4-1" value="" style="edgeStyle=orthogonalEdgeStyle;rounded=0;orthogonalLoop=1;jettySize=auto;html=1;" edge="1" parent="1" source="mX9lH0xKadMaAbixFSZC-7" target="mX9lH0xKadMaAbixFSZC-13">
          <mxGeometry relative="1" as="geometry" />
        </mxCell>
        <mxCell id="mX9lH0xKadMaAbixFSZC-7" value="$root" style="text;html=1;strokeColor=none;fillColor=none;align=center;verticalAlign=middle;whiteSpace=wrap;rounded=0;" parent="1" vertex="1">
          <mxGeometry x="525" y="230" width="60" height="20" as="geometry" />
        </mxCell>
        <mxCell id="RwqCtOEDGQTjEghPccc4-3" value="" style="edgeStyle=orthogonalEdgeStyle;rounded=0;orthogonalLoop=1;jettySize=auto;html=1;" edge="1" parent="1" source="mX9lH0xKadMaAbixFSZC-13" target="RwqCtOEDGQTjEghPccc4-2">
          <mxGeometry relative="1" as="geometry" />
        </mxCell>
        <mxCell id="mX9lH0xKadMaAbixFSZC-13" value="AddEventListener" style="text;html=1;strokeColor=none;fillColor=none;align=center;verticalAlign=middle;whiteSpace=wrap;rounded=0;" parent="1" vertex="1">
          <mxGeometry x="660" y="230" width="100" height="20" as="geometry" />
        </mxCell>
        <mxCell id="RwqCtOEDGQTjEghPccc4-5" value="" style="edgeStyle=orthogonalEdgeStyle;rounded=0;orthogonalLoop=1;jettySize=auto;html=1;" edge="1" parent="1" source="RwqCtOEDGQTjEghPccc4-2" target="RwqCtOEDGQTjEghPccc4-4">
          <mxGeometry relative="1" as="geometry" />
        </mxCell>
        <mxCell id="RwqCtOEDGQTjEghPccc4-2" value="input" style="text;html=1;strokeColor=none;fillColor=none;align=center;verticalAlign=middle;whiteSpace=wrap;rounded=0;" vertex="1" parent="1">
          <mxGeometry x="695" y="330" width="30" height="20" as="geometry" />
        </mxCell>
        <mxCell id="RwqCtOEDGQTjEghPccc4-4" value="onInput" style="text;html=1;strokeColor=none;fillColor=none;align=center;verticalAlign=middle;whiteSpace=wrap;rounded=0;" vertex="1" parent="1">
          <mxGeometry x="830" y="330" width="50" height="20" as="geometry" />
        </mxCell>
      </root>
    </mxGraphModel>
  </diagram>
</mxfile>
